<?xml version="1.0" encoding="UTF-8" standalone="no"?>
<!-- Created with Inkscape (http://www.inkscape.org/) -->

<svg
   xmlns:dc="http://purl.org/dc/elements/1.1/"
   xmlns:cc="http://creativecommons.org/ns#"
   xmlns:rdf="http://www.w3.org/1999/02/22-rdf-syntax-ns#"
   xmlns:svg="http://www.w3.org/2000/svg"
   xmlns="http://www.w3.org/2000/svg"
   xmlns:sodipodi="http://sodipodi.sourceforge.net/DTD/sodipodi-0.dtd"
   xmlns:inkscape="http://www.inkscape.org/namespaces/inkscape"
   width="200"
   height="200"
   viewBox="0 0 52.916668 52.916666"
   version="1.1"
   id="svg8"
   inkscape:version="0.92.3 (2405546, 2018-03-11)"
   sodipodi:docname="commercial.svg">
  <defs
     id="defs2">
    <inkscape:path-effect
       effect="envelope"
       id="path-effect4658"
       is_visible="true"
       yy="true"
       xx="true"
       bendpath1="m -199.08406,108.42369 h 7.0057"
       bendpath2="m -192.07836,108.42369 v 6.75242"
       bendpath3="m -199.08406,115.17611 h 7.0057"
       bendpath4="m -199.08406,108.42369 v 6.75242" />
    <inkscape:path-effect
       effect="bend_path"
       id="path-effect4656"
       is_visible="true"
       bendpath="m -192.00142,114.60623 c 2.12577,-0.53066 4.48261,0.85111 7.0057,0"
       prop_scale="1"
       scale_y_rel="false"
       vertical="false"
       bendpath-nodetypes="cc" />
    <inkscape:path-effect
       effect="bounding_box"
       id="path-effect4654"
       is_visible="true"
       linkedpath=""
       visualbounds="false" />
  </defs>
  <sodipodi:namedview
     id="base"
     pagecolor="#ffffff"
     bordercolor="#666666"
     borderopacity="1.0"
     inkscape:pageopacity="0.0"
     inkscape:pageshadow="2"
     inkscape:zoom="1.4142136"
     inkscape:cx="109.29938"
     inkscape:cy="158.32637"
     inkscape:document-units="px"
     inkscape:current-layer="g5175"
     showgrid="false"
     fit-margin-top="0"
     fit-margin-left="0"
     fit-margin-right="0"
     fit-margin-bottom="0"
     inkscape:window-width="1317"
     inkscape:window-height="711"
     inkscape:window-x="49"
     inkscape:window-y="25"
     inkscape:window-maximized="1"
     showguides="false"
     inkscape:object-nodes="true"
     units="px"
     inkscape:snap-page="true"
     inkscape:measure-start="0,0"
     inkscape:measure-end="0,0" />
  <metadata
     id="metadata5">
    <rdf:RDF>
      <cc:Work
         rdf:about="">
        <dc:format>image/svg+xml</dc:format>
        <dc:type
           rdf:resource="http://purl.org/dc/dcmitype/StillImage" />
        <dc:title></dc:title>
      </cc:Work>
    </rdf:RDF>
  </metadata>
  <g
     inkscape:label="Layer 1"
     inkscape:groupmode="layer"
     id="layer1"
     transform="translate(98.048812,-95.14345)">
    <g
       style="stroke-width:0.5"
       transform="matrix(2,0,0,2,-98.048812,95.143449)"
       id="g5175">
      <rect
         y="-1.110223e-16"
         x="0"
         height="26.458334"
         width="26.458334"
         id="rect5163"
         style="opacity:1;fill:#000000;fill-opacity:1;fill-rule:nonzero;stroke:none;stroke-width:0.25;stroke-linecap:butt;stroke-linejoin:round;stroke-miterlimit:4;stroke-dasharray:none;stroke-dashoffset:0;stroke-opacity:0.90944878;paint-order:normal"
         rx="1.984375"
         ry="1.984375" />
      <rect
         style="opacity:1;fill:#008000;fill-opacity:1;fill-rule:nonzero;stroke:none;stroke-width:0.25;stroke-linecap:butt;stroke-linejoin:round;stroke-miterlimit:4;stroke-dasharray:none;stroke-dashoffset:0;stroke-opacity:0.90944878;paint-order:normal"
         id="rect5165"
         width="23.8125"
         height="23.8125"
         x="1.322917"
         y="1.322917"
         rx="1.3229166"
         ry="1.3229166" />
      <path
         style="opacity:1;fill:#000000;fill-opacity:1;fill-rule:nonzero;stroke:none;stroke-width:0.24999997;stroke-linecap:butt;stroke-linejoin:round;stroke-miterlimit:4;stroke-dasharray:none;stroke-dashoffset:0;stroke-opacity:0.90944878;paint-order:normal"
         d="m 0.72760492,18.520836 v 4.167188 c 0,1.539081 1.23904398,2.778124 2.77812498,2.778124 H 22.952604 c 1.539081,0 2.778125,-1.239043 2.778125,-2.778124 v -4.167188 z"
         id="rect5205-3-6"
         inkscape:connector-curvature="0" />
      <flowRoot
         xml:space="preserve"
         id="flowRoot846"
         style="font-style:normal;font-weight:normal;font-size:40px;line-height:1.25;font-family:sans-serif;letter-spacing:0px;word-spacing:0px;fill:#000000;fill-opacity:1;stroke:none"
         transform="matrix(0.15150151,0,0,0.15150151,0.39744815,-3.5844907)"><flowRegion
           id="flowRegion848"><rect
             id="rect850"
             width="201.63609"
             height="51.417969"
             x="5.5000057"
             y="140.00002" /></flowRegion><flowPara
           id="flowPara852"
           style="font-style:normal;font-variant:normal;font-weight:normal;font-stretch:normal;font-size:26.70676613px;font-family:Raleway;-inkscape-font-specification:Raleway;fill:#ffffff">Commercial</flowPara></flowRoot>      <g
         transform="matrix(0.03622737,0,0,0.03622737,5.6788794,2.1642153)"
         id="g32">
        <g
           id="g30">
          <g
             id="g4">
            <path
               d="m 241.395,282.304 c -1.587,-1.738 -3.595,-3.038 -5.67,-4.121 -4.518,-2.356 -9.459,-3.785 -14.365,-5.075 v 38.016 c 7.963,-0.9 17.105,-3.79 21.286,-11.224 v 0 c 1.996,-3.551 2.393,-7.914 1.58,-11.867 -0.441,-2.142 -1.352,-4.108 -2.831,-5.729 z"
               id="path2"
               inkscape:connector-curvature="0" />
          </g>
          <g
             id="g8">
            <path
               d="m 242.604,299.973 c 0.016,-0.027 0.025,-0.044 0.042,-0.073 v 0 c -0.014,0.024 -0.028,0.048 -0.042,0.073 z"
               id="path6"
               inkscape:connector-curvature="0" />
          </g>
          <g
             id="g12">
            <path
               d="m 184.009,221.532 c -1.369,1.999 -2.228,4.27 -2.465,6.684 -0.237,2.419 -0.104,5.11 0.815,7.387 0.875,2.17 2.708,3.772 4.6,5.062 2.123,1.444 4.458,2.572 6.836,3.528 1.995,0.803 4.239,1.571 6.658,2.313 v -34.4 c -6.111,1.304 -12.788,4.088 -16.444,9.426 z"
               id="path10"
               inkscape:connector-curvature="0" />
          </g>
          <g
             id="g16">
            <path
               d="m 242.804,299.619 c -0.05,0.089 -0.104,0.182 -0.157,0.28 v 0 c 0.062,-0.114 0.111,-0.198 0.157,-0.28 z"
               id="path14"
               inkscape:connector-curvature="0" />
          </g>
          <g
             id="g20">
            <path
               d="m 243.004,299.263 c 0.013,-0.024 0.015,-0.026 0,0 z"
               id="path18"
               inkscape:connector-curvature="0" />
          </g>
          <g
             id="g24">
            <path
               d="M 234.753,92.469 C 267.082,65.311 288.684,4.128 275.39,1.452 257.726,-2.105 219.368,13.492 200.828,16.24 174.532,19.415 145.892,-12.275 129.816,5.389 116.745,19.751 139.187,71.981 174.298,94.735 69.546,146.219 -77.69,404.673 179.171,423.426 534.582,449.375 356.615,142.639 234.753,92.469 Z m 30.523,203.829 c -1.093,10.076 -6.433,19.188 -14.415,25.374 -8.428,6.532 -18.999,9.57 -29.502,10.421 v 11.133 c 0,2.979 -1.301,5.86 -3.531,7.832 -3.065,2.712 -7.569,3.381 -11.289,1.667 -3.673,-1.69 -6.086,-5.457 -6.086,-9.499 v -12.168 c -1.801,-0.342 -3.589,-0.749 -5.356,-1.234 -9.816,-2.697 -18.921,-7.954 -25.572,-15.732 -3.313,-3.877 -6.014,-8.276 -7.882,-13.025 -0.488,-1.241 -0.923,-2.505 -1.304,-3.783 -0.345,-1.157 -0.701,-2.333 -0.824,-3.539 -0.207,-2.023 0.194,-4.087 1.137,-5.889 1.938,-3.707 6.022,-5.946 10.192,-5.574 4.104,0.364 7.701,3.212 8.993,7.124 0.398,1.205 0.668,2.44 1.115,3.632 0.443,1.184 0.978,2.335 1.607,3.431 1.242,2.158 2.798,4.148 4.59,5.875 3.694,3.559 8.399,5.872 13.304,7.248 V 268.23 c -9.591,-2.483 -19.491,-5.69 -27.411,-11.848 -3.849,-2.994 -7.115,-6.714 -9.254,-11.117 -2.257,-4.647 -3.192,-9.824 -3.23,-14.966 -0.039,-5.221 0.953,-10.396 3.131,-15.153 2.04,-4.454 4.977,-8.453 8.578,-11.768 7.7,-7.087 17.928,-11.04 28.187,-12.492 v -0.91 -10.647 c 0,-2.978 1.301,-5.86 3.531,-7.832 3.066,-2.711 7.568,-3.381 11.289,-1.667 3.672,1.691 6.086,5.457 6.086,9.499 v 10.647 0.847 c 1.367,0.172 2.73,0.378 4.086,0.624 10.074,1.823 19.927,5.983 27.294,13.246 3.49,3.44 6.347,7.539 8.356,12.009 0.561,1.247 1.052,2.523 1.477,3.824 0.396,1.213 0.794,2.462 0.983,3.728 0.302,2.021 -0.006,4.109 -0.871,5.958 -1.772,3.788 -5.746,6.2 -9.927,6.021 -4.108,-0.179 -7.83,-2.854 -9.301,-6.694 -0.438,-1.142 -0.657,-2.351 -1.104,-3.49 -0.451,-1.153 -1.035,-2.253 -1.708,-3.292 -1.308,-2.02 -3.003,-3.752 -4.938,-5.179 -4.19,-3.094 -9.272,-4.706 -14.35,-5.607 v 39.582 c 6.035,1.445 12.075,3.021 17.857,5.301 8.739,3.446 17.02,8.73 21.79,17.062 -0.74,-1.298 -1.46,-2.563 0.025,0.043 1.458,2.56 0.762,1.34 0.03,0.057 3.795,6.688 5.042,14.685 4.217,22.282 z"
               id="path22"
               inkscape:connector-curvature="0" />
          </g>
          <g
             id="g28">
            <path
               d="m 242.493,300.169 c -0.061,0.109 -0.114,0.205 -0.156,0.278 0.036,-0.063 0.09,-0.158 0.156,-0.278 z"
               id="path26"
               inkscape:connector-curvature="0" />
          </g>
        </g>
      </g>
    </g>
    <text
       xml:space="preserve"
       style="font-style:normal;font-variant:normal;font-weight:500;font-stretch:normal;font-size:8.46666622px;line-height:4.23333311px;font-family:Montserrat;-inkscape-font-specification:'Montserrat Medium';text-align:center;text-anchor:middle;opacity:1;fill:#eeeeee;fill-opacity:1;fill-rule:nonzero;stroke:none;stroke-width:4.23333311;stroke-linecap:butt;stroke-linejoin:round;stroke-miterlimit:4;stroke-dasharray:none;stroke-dashoffset:0;stroke-opacity:1;paint-order:stroke fill markers"
       x="-355.53735"
       y="24.113144"
       id="text4627-36-3"><tspan
         sodipodi:role="line"
         id="tspan4625-0-6"
         x="-355.53735"
         y="24.113144"
         style="font-style:normal;font-variant:normal;font-weight:500;font-stretch:normal;font-size:8.46666622px;font-family:Montserrat;-inkscape-font-specification:'Montserrat Medium';text-align:center;text-anchor:middle;fill:#eeeeee;fill-opacity:1;stroke-width:4.23333311">ORD</tspan></text>
  </g>
</svg>
