<?xml version="1.0" encoding="UTF-8" standalone="no"?>
<!-- Created with Inkscape (http://www.inkscape.org/) -->

<svg
   xmlns:dc="http://purl.org/dc/elements/1.1/"
   xmlns:cc="http://creativecommons.org/ns#"
   xmlns:rdf="http://www.w3.org/1999/02/22-rdf-syntax-ns#"
   xmlns:svg="http://www.w3.org/2000/svg"
   xmlns="http://www.w3.org/2000/svg"
   xmlns:sodipodi="http://sodipodi.sourceforge.net/DTD/sodipodi-0.dtd"
   xmlns:inkscape="http://www.inkscape.org/namespaces/inkscape"
   width="200"
   height="200"
   viewBox="0 0 52.916668 52.916666"
   version="1.1"
   id="svg8"
   inkscape:version="0.92.3 (2405546, 2018-03-11)"
   sodipodi:docname="gratis.svg">
  <defs
     id="defs2">
    <inkscape:path-effect
       effect="envelope"
       id="path-effect4658"
       is_visible="true"
       yy="true"
       xx="true"
       bendpath1="m -199.08406,108.42369 h 7.0057"
       bendpath2="m -192.07836,108.42369 v 6.75242"
       bendpath3="m -199.08406,115.17611 h 7.0057"
       bendpath4="m -199.08406,108.42369 v 6.75242" />
    <inkscape:path-effect
       effect="bend_path"
       id="path-effect4656"
       is_visible="true"
       bendpath="m -192.00142,114.60623 c 2.12577,-0.53066 4.48261,0.85111 7.0057,0"
       prop_scale="1"
       scale_y_rel="false"
       vertical="false"
       bendpath-nodetypes="cc" />
    <inkscape:path-effect
       effect="bounding_box"
       id="path-effect4654"
       is_visible="true"
       linkedpath=""
       visualbounds="false" />
  </defs>
  <sodipodi:namedview
     id="base"
     pagecolor="#ffffff"
     bordercolor="#666666"
     borderopacity="1.0"
     inkscape:pageopacity="0.0"
     inkscape:pageshadow="2"
     inkscape:zoom="1.4142136"
     inkscape:cx="96.925012"
     inkscape:cy="130.04209"
     inkscape:document-units="px"
     inkscape:current-layer="g5175"
     showgrid="false"
     fit-margin-top="0"
     fit-margin-left="0"
     fit-margin-right="0"
     fit-margin-bottom="0"
     inkscape:window-width="1317"
     inkscape:window-height="711"
     inkscape:window-x="49"
     inkscape:window-y="25"
     inkscape:window-maximized="1"
     showguides="false"
     inkscape:object-nodes="true"
     units="px"
     inkscape:snap-page="true"
     inkscape:measure-start="0,0"
     inkscape:measure-end="0,0" />
  <metadata
     id="metadata5">
    <rdf:RDF>
      <cc:Work
         rdf:about="">
        <dc:format>image/svg+xml</dc:format>
        <dc:type
           rdf:resource="http://purl.org/dc/dcmitype/StillImage" />
        <dc:title></dc:title>
      </cc:Work>
    </rdf:RDF>
  </metadata>
  <g
     inkscape:label="Layer 1"
     inkscape:groupmode="layer"
     id="layer1"
     transform="translate(98.048812,-95.14345)">
    <g
       style="stroke-width:0.5"
       transform="matrix(2,0,0,2,-98.048812,95.143449)"
       id="g5175">
      <rect
         y="-1.110223e-16"
         x="0"
         height="26.458334"
         width="26.458334"
         id="rect5163"
         style="opacity:1;fill:#000000;fill-opacity:1;fill-rule:nonzero;stroke:none;stroke-width:0.25;stroke-linecap:butt;stroke-linejoin:round;stroke-miterlimit:4;stroke-dasharray:none;stroke-dashoffset:0;stroke-opacity:0.90944878;paint-order:normal"
         rx="1.984375"
         ry="1.984375" />
      <rect
         style="opacity:1;fill:#ff6600;fill-opacity:1;fill-rule:nonzero;stroke:none;stroke-width:0.25;stroke-linecap:butt;stroke-linejoin:round;stroke-miterlimit:4;stroke-dasharray:none;stroke-dashoffset:0;stroke-opacity:0.90944878;paint-order:normal"
         id="rect5165"
         width="23.8125"
         height="23.8125"
         x="1.322917"
         y="1.322917"
         rx="1.3229166"
         ry="1.3229166" />
      <path
         style="opacity:1;fill:#000000;fill-opacity:1;fill-rule:nonzero;stroke:none;stroke-width:0.24999997;stroke-linecap:butt;stroke-linejoin:round;stroke-miterlimit:4;stroke-dasharray:none;stroke-dashoffset:0;stroke-opacity:0.90944878;paint-order:normal"
         d="m 0.72760492,18.520836 v 4.167188 c 0,1.539081 1.23904398,2.778124 2.77812498,2.778124 H 22.952604 c 1.539081,0 2.778125,-1.239043 2.778125,-2.778124 v -4.167188 z"
         id="rect5205-3-6"
         inkscape:connector-curvature="0" />
      <flowRoot
         xml:space="preserve"
         id="flowRoot846"
         style="font-style:normal;font-weight:normal;font-size:40px;line-height:1.25;font-family:sans-serif;letter-spacing:0px;word-spacing:0px;fill:#000000;fill-opacity:1;stroke:none"
         transform="matrix(0.11888373,0,0,0.11888373,0.60385051,2.1450731)"><flowRegion
           id="flowRegion848"><rect
             id="rect850"
             width="201.63609"
             height="51.417969"
             x="5.5000057"
             y="140.00002" /></flowRegion><flowPara
           id="flowPara852"
           style="font-style:normal;font-variant:normal;font-weight:normal;font-stretch:normal;font-size:34.12531278px;font-family:Raleway;-inkscape-font-specification:Raleway;fill:#ffffff">Gratis</flowPara></flowRoot>      <path
         inkscape:connector-curvature="0"
         d="M 18.575332,8.1536917 H 16.96551 V 7.8905139 c 0.524304,-0.38832 0.864935,-1.0112034 0.864935,-1.712254 0,-1.0386053 -0.747343,-1.9059948 -1.732479,-2.0926205 -0.286354,-1.0572773 -1.251081,-1.8254037 -2.390843,-1.8254349 -0.630806,3.12e-5 -1.236199,0.2439465 -1.691345,0.6683672 -0.162517,-0.042501 -0.330565,-0.064373 -0.499482,-0.064373 -0.803078,0 -1.503631,0.4872402 -1.8088444,1.1878871 -0.04163,-0.00246 -0.08348,-0.00366 -0.125423,-0.00366 -1.1743717,0 -2.1298078,0.9554359 -2.1298078,2.1298086 0,0.6466194 0.2900204,1.2264118 0.7463791,1.6173411 v 8.8085985 c 0,0.512623 0.4194188,0.932042 0.9320418,0.932042 h 6.9028263 c 0.512623,0 0.932042,-0.419419 0.932042,-0.932042 v -1.366995 h 1.609822 c 0.959321,0 1.739813,-0.780491 1.739813,-1.739811 V 9.8934674 c 0,-0.9593188 -0.780492,-1.7397793 -1.739813,-1.7397793 z M 15.700636,7.1274822 h -5.453563 v 1.896736 c 0,0.3259974 -0.2642974,0.5902932 -0.5902944,0.5902932 -0.3259965,0 -0.5902925,-0.2642958 -0.5902925,-0.5902932 V 6.9746274 C 8.8057319,6.8052443 8.6328071,6.5116513 8.6328071,6.1782287 c 0,-0.5234038 0.4258189,-0.9492224 0.9492215,-0.9492224 0.117811,0 0.233105,0.021562 0.342743,0.064062 0.1751004,0.067884 0.3720724,0.048436 0.5304884,-0.052474 0.158416,-0.1009092 0.259356,-0.2711619 0.271876,-0.4585335 0.02762,-0.4134223 0.374245,-0.7372759 0.78916,-0.7372759 0.135333,0 0.263613,0.032931 0.381206,0.097833 0.260194,0.1435966 0.586565,0.071363 0.761881,-0.1686066 0.247551,-0.3388591 0.62944,-0.5332211 1.04774,-0.5332211 0.692103,0 1.260928,0.5408331 1.294979,1.2312582 0.0078,0.1584474 0.07906,0.3071081 0.197748,0.4123979 0.118649,0.1053204 0.274703,0.1585709 0.432964,0.1473867 0.02747,-0.00191 0.04903,-0.00281 0.06782,-0.00281 0.523405,0 0.949224,0.425819 0.949224,0.9492223 0,0.5234039 -0.425819,0.9492229 -0.949224,0.9492229 z m 2.998968,6.3699168 c 0,0.06621 -0.05806,0.124272 -0.124272,0.124272 H 16.96551 V 9.7692304 h 1.609822 c 0.06621,0 0.124272,0.05807 0.124272,0.124272 z"
         id="path2"
         style="stroke-width:0.01553403" />
    </g>
    <text
       xml:space="preserve"
       style="font-style:normal;font-variant:normal;font-weight:500;font-stretch:normal;font-size:8.46666622px;line-height:4.23333311px;font-family:Montserrat;-inkscape-font-specification:'Montserrat Medium';text-align:center;text-anchor:middle;opacity:1;fill:#eeeeee;fill-opacity:1;fill-rule:nonzero;stroke:none;stroke-width:4.23333311;stroke-linecap:butt;stroke-linejoin:round;stroke-miterlimit:4;stroke-dasharray:none;stroke-dashoffset:0;stroke-opacity:1;paint-order:stroke fill markers"
       x="-355.53735"
       y="24.113144"
       id="text4627-36-3"><tspan
         sodipodi:role="line"
         id="tspan4625-0-6"
         x="-355.53735"
         y="24.113144"
         style="font-style:normal;font-variant:normal;font-weight:500;font-stretch:normal;font-size:8.46666622px;font-family:Montserrat;-inkscape-font-specification:'Montserrat Medium';text-align:center;text-anchor:middle;fill:#eeeeee;fill-opacity:1;stroke-width:4.23333311">ORD</tspan></text>
  </g>
</svg>
