<?xml version="1.0" encoding="UTF-8" standalone="no"?>
<!-- Created with Inkscape (http://www.inkscape.org/) -->

<svg
   xmlns:dc="http://purl.org/dc/elements/1.1/"
   xmlns:cc="http://creativecommons.org/ns#"
   xmlns:rdf="http://www.w3.org/1999/02/22-rdf-syntax-ns#"
   xmlns:svg="http://www.w3.org/2000/svg"
   xmlns="http://www.w3.org/2000/svg"
   xmlns:sodipodi="http://sodipodi.sourceforge.net/DTD/sodipodi-0.dtd"
   xmlns:inkscape="http://www.inkscape.org/namespaces/inkscape"
   width="200"
   height="200"
   viewBox="0 0 52.916668 52.916666"
   version="1.1"
   id="svg8"
   inkscape:version="0.92.3 (2405546, 2018-03-11)"
   sodipodi:docname="proprietary.svg">
  <defs
     id="defs2">
    <inkscape:path-effect
       effect="envelope"
       id="path-effect4658"
       is_visible="true"
       yy="true"
       xx="true"
       bendpath1="m -199.08406,108.42369 h 7.0057"
       bendpath2="m -192.07836,108.42369 v 6.75242"
       bendpath3="m -199.08406,115.17611 h 7.0057"
       bendpath4="m -199.08406,108.42369 v 6.75242" />
    <inkscape:path-effect
       effect="bend_path"
       id="path-effect4656"
       is_visible="true"
       bendpath="m -192.00142,114.60623 c 2.12577,-0.53066 4.48261,0.85111 7.0057,0"
       prop_scale="1"
       scale_y_rel="false"
       vertical="false"
       bendpath-nodetypes="cc" />
    <inkscape:path-effect
       effect="bounding_box"
       id="path-effect4654"
       is_visible="true"
       linkedpath=""
       visualbounds="false" />
  </defs>
  <sodipodi:namedview
     id="base"
     pagecolor="#ffffff"
     bordercolor="#666666"
     borderopacity="1.0"
     inkscape:pageopacity="0.0"
     inkscape:pageshadow="2"
     inkscape:zoom="1.4142136"
     inkscape:cx="109.29938"
     inkscape:cy="130.04209"
     inkscape:document-units="px"
     inkscape:current-layer="g5175"
     showgrid="false"
     fit-margin-top="0"
     fit-margin-left="0"
     fit-margin-right="0"
     fit-margin-bottom="0"
     inkscape:window-width="1317"
     inkscape:window-height="711"
     inkscape:window-x="49"
     inkscape:window-y="25"
     inkscape:window-maximized="1"
     showguides="false"
     inkscape:object-nodes="true"
     units="px"
     inkscape:snap-page="true"
     inkscape:measure-start="0,0"
     inkscape:measure-end="0,0" />
  <metadata
     id="metadata5">
    <rdf:RDF>
      <cc:Work
         rdf:about="">
        <dc:format>image/svg+xml</dc:format>
        <dc:type
           rdf:resource="http://purl.org/dc/dcmitype/StillImage" />
        <dc:title></dc:title>
      </cc:Work>
    </rdf:RDF>
  </metadata>
  <g
     inkscape:label="Layer 1"
     inkscape:groupmode="layer"
     id="layer1"
     transform="translate(98.048812,-95.14345)">
    <g
       style="stroke-width:0.5"
       transform="matrix(2,0,0,2,-98.048812,95.143449)"
       id="g5175">
      <rect
         y="-1.110223e-16"
         x="0"
         height="26.458334"
         width="26.458334"
         id="rect5163"
         style="opacity:1;fill:#000000;fill-opacity:1;fill-rule:nonzero;stroke:none;stroke-width:0.25;stroke-linecap:butt;stroke-linejoin:round;stroke-miterlimit:4;stroke-dasharray:none;stroke-dashoffset:0;stroke-opacity:0.90944878;paint-order:normal"
         rx="1.984375"
         ry="1.984375" />
      <rect
         style="opacity:1;fill:#666666;fill-opacity:1;fill-rule:nonzero;stroke:none;stroke-width:0.25;stroke-linecap:butt;stroke-linejoin:round;stroke-miterlimit:4;stroke-dasharray:none;stroke-dashoffset:0;stroke-opacity:0.90944878;paint-order:normal"
         id="rect5165"
         width="23.8125"
         height="23.8125"
         x="1.322917"
         y="1.322917"
         rx="1.3229166"
         ry="1.3229166" />
      <path
         style="opacity:1;fill:#000000;fill-opacity:1;fill-rule:nonzero;stroke:none;stroke-width:0.24999997;stroke-linecap:butt;stroke-linejoin:round;stroke-miterlimit:4;stroke-dasharray:none;stroke-dashoffset:0;stroke-opacity:0.90944878;paint-order:normal"
         d="m 0.72760492,18.520836 v 4.167188 c 0,1.539081 1.23904398,2.778124 2.77812498,2.778124 H 22.952604 c 1.539081,0 2.778125,-1.239043 2.778125,-2.778124 v -4.167188 z"
         id="rect5205-3-6"
         inkscape:connector-curvature="0" />
      <flowRoot
         xml:space="preserve"
         id="flowRoot846"
         style="font-style:normal;font-weight:normal;font-size:40px;line-height:1.25;font-family:sans-serif;letter-spacing:0px;word-spacing:0px;fill:#000000;fill-opacity:1;stroke:none"
         transform="matrix(0.14678084,0,0,0.14678084,0.42733059,-2.8488096)"><flowRegion
           id="flowRegion848"><rect
             id="rect850"
             width="201.63609"
             height="51.417969"
             x="5.5000057"
             y="140.00002" /></flowRegion><flowPara
           id="flowPara852"
           style="font-style:normal;font-variant:normal;font-weight:normal;font-stretch:normal;font-size:26.77824402px;font-family:Raleway;-inkscape-font-specification:Raleway;fill:#ffffff">Proprietary</flowPara></flowRoot>      <g
         transform="matrix(0.02822218,0,0,0.0311449,10.776305,0.09354484)"
         id="g6">
        <g
           id="g4">
          <path
             d="m 85.11528,75.088004 c -83.1246265,0 -150.754023,62.898486 -150.754023,140.213706 v 80.07964 c 0,0.91 -1.207393,2.44334 -2.155863,2.73656 -8.152271,2.52852 -14.77307,4.71959 -20.833773,6.89262 -7.227576,2.5916 -12.678861,10.04119 -12.678861,17.32942 v 184.00043 c 0,7.23827 5.416059,14.69442 12.597841,17.3417 55.567007,20.47962 114.049879,30.86156 173.823799,30.86156 59.77392,0 118.25679,-10.38438 173.82643,-30.86401 7.17915,-2.64647 12.59257,-10.10098 12.59257,-17.33925 V 322.33995 c 0,-7.28823 -5.45041,-14.73782 -12.68151,-17.33188 -6.06335,-2.17304 -12.68326,-4.36409 -20.82937,-6.89261 -0.94583,-0.29324 -2.15322,-1.82738 -2.15322,-2.73739 V 215.29924 C 235.8649,137.98649 168.2399,75.088004 85.11528,75.088004 Z M 44.05362,378.38022 c 0,-21.10705 18.38379,-38.18746 41.05902,-38.18746 22.67347,0 41.05725,17.07877 41.05725,38.18746 0,13.9859 -8.47987,25.69556 -20.52906,32.33344 v 63.13602 c 0,10.55474 -9.18177,19.09373 -20.52907,19.09373 -11.34818,0 -20.52907,-8.53899 -20.52907,-19.09373 V 410.71366 C 52.53438,404.07578 44.05362,392.36612 44.05362,378.38022 Z M 184.0319,215.29924 v 69.09406 c -32.43824,-6.49208 -65.7175,-9.77989 -98.90341,-9.78235 -33.17094,0 -66.44316,3.28863 -98.931583,9.77498 v -69.08669 c 0,-50.73012 44.372933,-91.9998 98.915733,-91.9998 54.54191,-8.2e-4 98.91926,41.26968 98.91926,91.9998 z"
             id="path2"
             inkscape:connector-curvature="0"
             style="stroke-width:0.42465776" />
        </g>
      </g>
    </g>
    <text
       xml:space="preserve"
       style="font-style:normal;font-variant:normal;font-weight:500;font-stretch:normal;font-size:8.46666622px;line-height:4.23333311px;font-family:Montserrat;-inkscape-font-specification:'Montserrat Medium';text-align:center;text-anchor:middle;opacity:1;fill:#eeeeee;fill-opacity:1;fill-rule:nonzero;stroke:none;stroke-width:4.23333311;stroke-linecap:butt;stroke-linejoin:round;stroke-miterlimit:4;stroke-dasharray:none;stroke-dashoffset:0;stroke-opacity:1;paint-order:stroke fill markers"
       x="-355.53735"
       y="24.113144"
       id="text4627-36-3"><tspan
         sodipodi:role="line"
         id="tspan4625-0-6"
         x="-355.53735"
         y="24.113144"
         style="font-style:normal;font-variant:normal;font-weight:500;font-stretch:normal;font-size:8.46666622px;font-family:Montserrat;-inkscape-font-specification:'Montserrat Medium';text-align:center;text-anchor:middle;fill:#eeeeee;fill-opacity:1;stroke-width:4.23333311">ORD</tspan></text>
  </g>
</svg>
